<svg width="330" height="214" viewBox="0 0 330 214" fill="none" xmlns="http://www.w3.org/2000/svg">
<path d="M6.784 97.92V84.864H43.648V97.92H6.784ZM82.503 129.28C76.1883 129.28 70.6843 127.829 65.991 124.928C61.383 122.027 57.031 117.163 52.935 110.336L63.687 103.552C65.8203 106.709 67.911 109.312 69.959 111.36C72.0923 113.323 74.2683 114.773 76.487 115.712C78.7057 116.651 81.0523 117.12 83.527 117.12C86.5137 117.12 89.287 116.395 91.847 114.944C94.407 113.408 96.455 111.317 97.991 108.672C99.527 106.027 100.295 103.04 100.295 99.712C100.295 96.384 99.6977 93.568 98.503 91.264C97.3083 88.8747 95.559 87.0827 93.255 85.888C90.951 84.608 88.2203 83.968 85.063 83.968C83.6123 83.968 82.0763 84.1387 80.455 84.48C78.919 84.736 77.255 85.1627 75.463 85.76C73.671 86.272 71.7083 86.9547 69.575 87.808L65.735 77.696L93.383 47.232L96.071 51.2H57.927V38.4H109.255L111.815 43.52L82.503 76.032L79.303 72.704C79.9857 72.3627 81.095 72.064 82.631 71.808C84.2523 71.4667 85.575 71.296 86.599 71.296C90.3537 71.296 93.8523 72.0213 97.095 73.472C100.423 74.8373 103.282 76.8 105.671 79.36C108.146 81.8347 110.066 84.7787 111.431 88.192C112.882 91.52 113.607 95.104 113.607 98.944C113.607 104.747 112.199 109.952 109.383 114.56C106.652 119.083 102.94 122.667 98.247 125.312C93.5537 127.957 88.3057 129.28 82.503 129.28ZM156.909 129.28C150.082 129.28 144.194 127.403 139.245 123.648C134.381 119.893 130.626 114.603 127.981 107.776C125.336 100.864 124.013 92.672 124.013 83.2C124.013 73.728 125.336 65.5787 127.981 58.752C130.626 51.84 134.381 46.5067 139.245 42.752C144.194 38.9973 150.082 37.12 156.909 37.12C163.736 37.12 169.624 38.9973 174.573 42.752C179.522 46.5067 183.32 51.84 185.965 58.752C188.61 65.5787 189.933 73.728 189.933 83.2C189.933 92.672 188.61 100.864 185.965 107.776C183.32 114.603 179.522 119.893 174.573 123.648C169.624 127.403 163.736 129.28 156.909 129.28ZM156.909 116.736C163.138 116.736 167.96 113.835 171.373 108.032C174.786 102.144 176.493 93.8667 176.493 83.2C176.493 72.5333 174.786 64.2987 171.373 58.496C167.96 52.608 163.138 49.664 156.909 49.664C150.68 49.664 145.858 52.608 142.445 58.496C139.032 64.2987 137.325 72.5333 137.325 83.2C137.325 93.8667 139.032 102.144 142.445 108.032C145.858 113.835 150.68 116.736 156.909 116.736ZM212.387 128L271.651 38.4H284.835L224.931 128H212.387ZM220.579 85.888C216.739 85.888 213.326 84.864 210.339 82.816C207.438 80.6827 205.134 77.824 203.427 74.24C201.806 70.5707 200.995 66.3893 200.995 61.696C200.995 57.0027 201.806 52.8213 203.427 49.152C205.134 45.3973 207.48 42.496 210.467 40.448C213.454 38.3147 216.867 37.248 220.707 37.248C224.547 37.248 227.918 38.3147 230.819 40.448C233.806 42.496 236.11 45.3973 237.731 49.152C239.438 52.8213 240.291 57.0027 240.291 61.696C240.291 66.2187 239.438 70.3147 237.731 73.984C236.024 77.6533 233.678 80.5547 230.691 82.688C227.704 84.8213 224.334 85.888 220.579 85.888ZM220.707 76.288C222.499 76.288 224.035 75.6907 225.315 74.496C226.68 73.3013 227.704 71.6373 228.387 69.504C229.155 67.2853 229.539 64.6827 229.539 61.696C229.539 58.7093 229.155 56.1067 228.387 53.888C227.704 51.6693 226.68 49.9627 225.315 48.768C224.035 47.5733 222.456 46.976 220.579 46.976C218.787 46.976 217.208 47.616 215.843 48.896C214.478 50.0907 213.411 51.7973 212.643 54.016C211.96 56.1493 211.619 58.7093 211.619 61.696C211.619 64.6827 211.96 67.2853 212.643 69.504C213.411 71.6373 214.478 73.3013 215.843 74.496C217.208 75.6907 218.83 76.288 220.707 76.288ZM277.283 129.152C273.443 129.152 270.03 128.085 267.043 125.952C264.142 123.819 261.838 120.96 260.131 117.376C258.424 113.707 257.571 109.568 257.571 104.96C257.571 100.267 258.382 96.0853 260.003 92.416C261.71 88.6613 264.056 85.76 267.043 83.712C270.03 81.5787 273.443 80.512 277.283 80.512C281.123 80.512 284.494 81.5787 287.395 83.712C290.382 85.76 292.686 88.6613 294.307 92.416C296.014 96.0853 296.867 100.267 296.867 104.96C296.867 109.483 296.014 113.579 294.307 117.248C292.6 120.917 290.254 123.819 287.267 125.952C284.366 128.085 281.038 129.152 277.283 129.152ZM277.283 119.68C279.075 119.68 280.654 119.083 282.019 117.888C283.384 116.608 284.408 114.901 285.091 112.768C285.859 110.549 286.243 107.947 286.243 104.96C286.243 101.973 285.859 99.4133 285.091 97.28C284.408 95.0613 283.384 93.3547 282.019 92.16C280.654 90.88 279.075 90.24 277.283 90.24C275.406 90.24 273.784 90.8373 272.419 92.032C271.054 93.2267 269.987 94.9333 269.219 97.152C268.536 99.3707 268.195 101.973 268.195 104.96C268.195 107.947 268.536 110.549 269.219 112.768C269.987 114.901 271.054 116.608 272.419 117.888C273.784 119.083 275.406 119.68 277.283 119.68Z" fill="white"/>
<path d="M6.272 205V160.2H23.808C27.008 160.2 29.888 160.733 32.448 161.8C35.0507 162.867 37.2693 164.403 39.104 166.408C40.9387 168.413 42.3467 170.781 43.328 173.512C44.3093 176.243 44.8 179.272 44.8 182.6C44.8 185.928 44.3093 188.979 43.328 191.752C42.3467 194.483 40.9387 196.851 39.104 198.856C37.312 200.819 35.1147 202.333 32.512 203.4C29.9093 204.467 27.008 205 23.808 205H6.272ZM13.184 199.048L12.992 198.344H23.488C25.7493 198.344 27.7547 197.981 29.504 197.256C31.296 196.531 32.7893 195.507 33.984 194.184C35.2213 192.819 36.16 191.155 36.8 189.192C37.44 187.229 37.76 185.032 37.76 182.6C37.76 180.168 37.44 177.992 36.8 176.072C36.16 174.109 35.2213 172.445 33.984 171.08C32.7467 169.715 31.2533 168.669 29.504 167.944C27.7547 167.219 25.7493 166.856 23.488 166.856H12.8L13.184 166.28V199.048ZM68.163 205.64C64.707 205.64 61.635 204.915 58.947 203.464C56.3017 201.971 54.211 199.944 52.675 197.384C51.1817 194.824 50.435 191.88 50.435 188.552C50.435 185.907 50.8617 183.496 51.715 181.32C52.5683 179.144 53.7417 177.267 55.235 175.688C56.771 174.067 58.5843 172.829 60.675 171.976C62.8083 171.08 65.1123 170.632 67.587 170.632C69.763 170.632 71.7897 171.059 73.667 171.912C75.5443 172.723 77.1657 173.853 78.531 175.304C79.939 176.755 81.0057 178.483 81.731 180.488C82.499 182.451 82.8617 184.605 82.819 186.952L82.755 189.768H55.299L53.827 184.52H77.059L76.099 185.608V184.072C75.971 182.664 75.5017 181.405 74.691 180.296C73.8803 179.187 72.8563 178.312 71.619 177.672C70.3817 177.032 69.0377 176.712 67.587 176.712C65.283 176.712 63.3417 177.16 61.763 178.056C60.1843 178.909 58.9897 180.189 58.179 181.896C57.3683 183.56 56.963 185.629 56.963 188.104C56.963 190.451 57.4537 192.499 58.435 194.248C59.4163 195.955 60.803 197.277 62.595 198.216C64.387 199.155 66.4563 199.624 68.803 199.624C70.467 199.624 72.003 199.347 73.411 198.792C74.8617 198.237 76.419 197.235 78.083 195.784L81.411 200.456C80.387 201.48 79.1283 202.376 77.635 203.144C76.1843 203.912 74.627 204.531 72.963 205C71.3417 205.427 69.7417 205.64 68.163 205.64ZM101.183 205.64C98.367 205.64 95.8283 205.149 93.567 204.168C91.3057 203.187 89.4283 201.736 87.935 199.816L92.415 195.976C93.695 197.469 95.0817 198.557 96.575 199.24C98.111 199.88 99.839 200.2 101.759 200.2C102.527 200.2 103.231 200.115 103.871 199.944C104.554 199.731 105.13 199.432 105.599 199.048C106.111 198.664 106.495 198.216 106.751 197.704C107.007 197.149 107.135 196.552 107.135 195.912C107.135 194.803 106.73 193.907 105.919 193.224C105.492 192.925 104.81 192.605 103.871 192.264C102.975 191.88 101.802 191.496 100.351 191.112C97.8763 190.472 95.8497 189.747 94.271 188.936C92.6923 188.125 91.4763 187.208 90.623 186.184C89.983 185.373 89.5137 184.499 89.215 183.56C88.9163 182.579 88.767 181.512 88.767 180.36C88.767 178.952 89.0657 177.672 89.663 176.52C90.303 175.325 91.1563 174.301 92.223 173.448C93.3323 172.552 94.6123 171.869 96.063 171.4C97.5563 170.931 99.135 170.696 100.799 170.696C102.378 170.696 103.935 170.909 105.471 171.336C107.05 171.763 108.5 172.381 109.823 173.192C111.146 174.003 112.255 174.963 113.151 176.072L109.375 180.232C108.564 179.421 107.668 178.717 106.687 178.12C105.748 177.48 104.788 176.989 103.807 176.648C102.826 176.307 101.93 176.136 101.119 176.136C100.223 176.136 99.4123 176.221 98.687 176.392C97.9617 176.563 97.343 176.819 96.831 177.16C96.3617 177.501 95.999 177.928 95.743 178.44C95.487 178.952 95.359 179.528 95.359 180.168C95.4017 180.723 95.5297 181.256 95.743 181.768C95.999 182.237 96.3403 182.643 96.767 182.984C97.2363 183.325 97.9403 183.688 98.879 184.072C99.8177 184.456 101.012 184.819 102.463 185.16C104.596 185.715 106.346 186.333 107.711 187.016C109.119 187.656 110.228 188.403 111.039 189.256C111.892 190.067 112.49 191.005 112.831 192.072C113.172 193.139 113.343 194.333 113.343 195.656C113.343 197.576 112.788 199.304 111.679 200.84C110.612 202.333 109.162 203.507 107.327 204.36C105.492 205.213 103.444 205.64 101.183 205.64ZM134.88 205.64C131.765 205.64 128.971 204.872 126.496 203.336C124.064 201.8 122.123 199.709 120.672 197.064C119.264 194.419 118.56 191.453 118.56 188.168C118.56 184.883 119.264 181.917 120.672 179.272C122.123 176.627 124.064 174.536 126.496 173C128.971 171.464 131.765 170.696 134.88 170.696C137.867 170.696 140.576 171.315 143.008 172.552C145.483 173.747 147.36 175.389 148.64 177.48L144.992 181.96C144.309 180.979 143.435 180.083 142.368 179.272C141.301 178.461 140.171 177.821 138.976 177.352C137.781 176.883 136.629 176.648 135.52 176.648C133.472 176.648 131.637 177.16 130.016 178.184C128.437 179.165 127.179 180.531 126.24 182.28C125.301 184.029 124.832 185.992 124.832 188.168C124.832 190.344 125.323 192.307 126.304 194.056C127.285 195.763 128.587 197.128 130.208 198.152C131.829 199.176 133.621 199.688 135.584 199.688C136.736 199.688 137.845 199.496 138.912 199.112C140.021 198.728 141.088 198.152 142.112 197.384C143.136 196.616 144.096 195.677 144.992 194.568L148.64 199.048C147.275 200.968 145.312 202.547 142.752 203.784C140.235 205.021 137.611 205.64 134.88 205.64ZM166.634 205.64C164.245 205.64 162.154 205.085 160.362 203.976C158.613 202.867 157.247 201.309 156.266 199.304C155.327 197.299 154.858 194.909 154.858 192.136V171.4H161.45V190.344C161.45 192.307 161.749 194.013 162.346 195.464C162.986 196.872 163.882 197.96 165.034 198.728C166.229 199.496 167.658 199.88 169.322 199.88C170.559 199.88 171.69 199.688 172.714 199.304C173.738 198.877 174.613 198.301 175.338 197.576C176.106 196.851 176.703 195.976 177.13 194.952C177.557 193.928 177.77 192.819 177.77 191.624V171.4H184.362V205H177.77V197.96L178.922 197.192C178.41 198.771 177.535 200.2 176.298 201.48C175.103 202.76 173.674 203.784 172.01 204.552C170.346 205.277 168.554 205.64 166.634 205.64ZM209.288 205.64C205.832 205.64 202.76 204.915 200.072 203.464C197.427 201.971 195.336 199.944 193.8 197.384C192.307 194.824 191.56 191.88 191.56 188.552C191.56 185.907 191.987 183.496 192.84 181.32C193.693 179.144 194.867 177.267 196.36 175.688C197.896 174.067 199.709 172.829 201.8 171.976C203.933 171.08 206.237 170.632 208.712 170.632C210.888 170.632 212.915 171.059 214.792 171.912C216.669 172.723 218.291 173.853 219.656 175.304C221.064 176.755 222.131 178.483 222.856 180.488C223.624 182.451 223.987 184.605 223.944 186.952L223.88 189.768H196.424L194.952 184.52H218.184L217.224 185.608V184.072C217.096 182.664 216.627 181.405 215.816 180.296C215.005 179.187 213.981 178.312 212.744 177.672C211.507 177.032 210.163 176.712 208.712 176.712C206.408 176.712 204.467 177.16 202.888 178.056C201.309 178.909 200.115 180.189 199.304 181.896C198.493 183.56 198.088 185.629 198.088 188.104C198.088 190.451 198.579 192.499 199.56 194.248C200.541 195.955 201.928 197.277 203.72 198.216C205.512 199.155 207.581 199.624 209.928 199.624C211.592 199.624 213.128 199.347 214.536 198.792C215.987 198.237 217.544 197.235 219.208 195.784L222.536 200.456C221.512 201.48 220.253 202.376 218.76 203.144C217.309 203.912 215.752 204.531 214.088 205C212.467 205.427 210.867 205.64 209.288 205.64ZM231.108 205V171.4H237.7V178.312L236.548 179.08C236.975 177.587 237.807 176.221 239.044 174.984C240.281 173.704 241.753 172.68 243.46 171.912C245.167 171.101 246.916 170.696 248.708 170.696C251.268 170.696 253.401 171.208 255.108 172.232C256.815 173.213 258.095 174.728 258.948 176.776C259.801 178.824 260.228 181.405 260.228 184.52V205H253.636V184.968C253.636 183.048 253.38 181.469 252.868 180.232C252.356 178.952 251.567 178.035 250.5 177.48C249.433 176.883 248.111 176.627 246.532 176.712C245.252 176.712 244.079 176.925 243.012 177.352C241.945 177.736 241.007 178.291 240.196 179.016C239.428 179.741 238.809 180.595 238.34 181.576C237.913 182.515 237.7 183.539 237.7 184.648V205H234.436C233.881 205 233.327 205 232.772 205C232.217 205 231.663 205 231.108 205ZM273.331 205V162.824H279.923V205H273.331ZM266.355 177.8V171.4H287.731V177.8H266.355ZM308.525 205.64C305.239 205.64 302.295 204.893 299.693 203.4C297.133 201.864 295.106 199.795 293.613 197.192C292.119 194.547 291.373 191.539 291.373 188.168C291.373 184.797 292.119 181.811 293.613 179.208C295.106 176.563 297.133 174.493 299.693 173C302.295 171.464 305.239 170.696 308.525 170.696C311.767 170.696 314.669 171.464 317.229 173C319.831 174.493 321.879 176.563 323.373 179.208C324.866 181.811 325.613 184.797 325.613 188.168C325.613 191.539 324.866 194.547 323.373 197.192C321.879 199.795 319.831 201.864 317.229 203.4C314.669 204.893 311.767 205.64 308.525 205.64ZM308.525 199.624C310.53 199.624 312.322 199.133 313.901 198.152C315.479 197.128 316.717 195.763 317.613 194.056C318.509 192.307 318.935 190.344 318.893 188.168C318.935 185.949 318.509 183.987 317.613 182.28C316.717 180.531 315.479 179.165 313.901 178.184C312.322 177.203 310.53 176.712 308.525 176.712C306.519 176.712 304.706 177.224 303.085 178.248C301.506 179.229 300.269 180.595 299.373 182.344C298.477 184.051 298.05 185.992 298.093 188.168C298.05 190.344 298.477 192.307 299.373 194.056C300.269 195.763 301.506 197.128 303.085 198.152C304.706 199.133 306.519 199.624 308.525 199.624Z" fill="white"/>
</svg>
