<svg width="529" height="627" viewBox="0 0 529 627" fill="none" xmlns="http://www.w3.org/2000/svg">
<path d="M122.388 190.2V76.6L129.788 93.6L99.7875 107.8L93.9875 77.4L133.788 58H155.788V190.2H122.388ZM96.7875 200V170H181.988V200H96.7875ZM235.697 202C223.164 202 212.43 199.133 203.497 193.4C194.697 187.667 187.964 179.467 183.297 168.8C178.63 158 176.297 145.067 176.297 130C176.297 114.933 178.63 102.067 183.297 91.4C187.964 80.6 194.697 72.3333 203.497 66.6C212.43 60.8667 223.164 58 235.697 58C248.23 58 258.964 60.8667 267.897 66.6C276.83 72.3333 283.63 80.6 288.297 91.4C292.964 102.067 295.297 114.933 295.297 130C295.297 145.067 292.964 158 288.297 168.8C283.63 179.467 276.83 187.667 267.897 193.4C258.964 199.133 248.23 202 235.697 202ZM235.697 173.2C244.364 173.2 251.03 169.467 255.697 162C260.497 154.533 262.897 143.867 262.897 130C262.897 115.733 260.497 104.8 255.697 97.2C251.03 89.4667 244.364 85.6 235.697 85.6C227.03 85.6 220.297 89.4667 215.497 97.2C210.83 104.8 208.497 115.733 208.497 130C208.497 143.867 210.83 154.533 215.497 162C220.297 169.467 227.03 173.2 235.697 173.2ZM313.458 200L406.058 60H435.858L342.258 200H313.458ZM322.458 134.2C315.658 134.2 309.591 132.533 304.258 129.2C298.924 125.733 294.724 121.067 291.658 115.2C288.724 109.333 287.258 102.667 287.258 95.2C287.258 87.6 288.724 80.8667 291.658 75C294.724 69 298.924 64.3333 304.258 61C309.591 57.6667 315.658 56 322.458 56C329.391 56 335.458 57.6667 340.658 61C345.991 64.3333 350.124 69 353.058 75C355.991 80.8667 357.458 87.6 357.458 95.2C357.458 102.667 355.924 109.333 352.858 115.2C349.791 121.067 345.591 125.733 340.258 129.2C335.058 132.533 329.124 134.2 322.458 134.2ZM322.458 113.6C324.724 113.6 326.591 112.867 328.058 111.4C329.658 109.933 330.858 107.8 331.658 105C332.458 102.2 332.858 98.9333 332.858 95.2C332.858 91.4667 332.458 88.2 331.658 85.4C330.858 82.6 329.658 80.4667 328.058 79C326.591 77.4 324.724 76.6 322.458 76.6C320.324 76.6 318.458 77.4 316.858 79C315.258 80.4667 313.991 82.6 313.058 85.4C312.258 88.2 311.858 91.4667 311.858 95.2C311.858 98.9333 312.258 102.2 313.058 105C313.858 107.8 315.058 109.933 316.658 111.4C318.391 112.867 320.324 113.6 322.458 113.6ZM429.058 202C422.258 202 416.191 200.267 410.858 196.8C405.524 193.333 401.324 188.733 398.258 183C395.324 177.133 393.858 170.467 393.858 163C393.858 155.4 395.324 148.667 398.258 142.8C401.191 136.8 405.324 132.133 410.658 128.8C415.991 125.467 422.124 123.8 429.058 123.8C435.991 123.8 442.058 125.467 447.258 128.8C452.591 132.133 456.724 136.8 459.658 142.8C462.591 148.667 464.058 155.4 464.058 163C464.058 170.333 462.524 176.933 459.458 182.8C456.391 188.667 452.191 193.333 446.858 196.8C441.658 200.267 435.724 202 429.058 202ZM429.058 181.4C431.324 181.4 433.191 180.667 434.658 179.2C436.258 177.6 437.458 175.467 438.258 172.8C439.058 170 439.458 166.733 439.458 163C439.458 159.267 439.058 156 438.258 153.2C437.458 150.4 436.258 148.267 434.658 146.8C433.191 145.2 431.324 144.4 429.058 144.4C426.791 144.4 424.858 145.133 423.258 146.6C421.658 148.067 420.391 150.267 419.458 153.2C418.658 156 418.258 159.267 418.258 163C418.258 166.733 418.658 170 419.458 172.8C420.391 175.467 421.658 177.6 423.258 179.2C424.858 180.667 426.791 181.4 429.058 181.4ZM165.115 452C154.448 452 144.715 450.2 135.915 446.6C127.115 443 119.448 437.933 112.915 431.4C106.382 424.867 101.315 417.2 97.7148 408.4C94.1148 399.6 92.3148 389.933 92.3148 379.4C92.3148 368.867 94.1148 359.2 97.7148 350.4C101.315 341.6 106.382 333.933 112.915 327.4C119.448 320.867 127.115 315.8 135.915 312.2C144.715 308.6 154.382 306.8 164.915 306.8C175.448 306.8 185.115 308.6 193.915 312.2C202.715 315.8 210.382 320.867 216.915 327.4C223.448 333.933 228.448 341.6 231.915 350.4C235.515 359.2 237.315 368.867 237.315 379.4C237.315 389.8 235.515 399.467 231.915 408.4C228.448 417.2 223.448 424.867 216.915 431.4C210.382 437.933 202.715 443 193.915 446.6C185.115 450.2 175.515 452 165.115 452ZM164.915 420C170.382 420 175.382 419 179.915 417C184.582 415 188.582 412.2 191.915 408.6C195.382 404.867 198.048 400.533 199.915 395.6C201.782 390.667 202.715 385.267 202.715 379.4C202.715 373.533 201.782 368.133 199.915 363.2C198.048 358.267 195.382 354 191.915 350.4C188.582 346.667 184.582 343.8 179.915 341.8C175.382 339.8 170.382 338.8 164.915 338.8C159.448 338.8 154.382 339.8 149.715 341.8C145.182 343.8 141.182 346.667 137.715 350.4C134.248 354 131.582 358.267 129.715 363.2C127.982 368.133 127.115 373.533 127.115 379.4C127.115 385.267 127.982 390.733 129.715 395.8C131.582 400.733 134.248 405 137.715 408.6C141.182 412.2 145.182 415 149.715 417C154.382 419 159.448 420 164.915 420ZM239.62 450V310H273.62V450H239.62ZM255.42 396.4V368H327.82V396.4H255.42ZM255.42 340V310H336.02V340H255.42ZM339.252 450V310H373.252V450H339.252ZM355.052 396.4V368H427.452V396.4H355.052ZM355.052 340V310H435.652V340H355.052Z" fill="white"/>
<path d="M69.2906 592V558.4H83.7866C85.8986 558.4 87.7706 558.88 89.4026 559.84C91.0666 560.8 92.3786 562.112 93.3386 563.776C94.3306 565.44 94.8266 567.312 94.8266 569.392C94.8266 571.568 94.3306 573.52 93.3386 575.248C92.3786 576.944 91.0666 578.288 89.4026 579.28C87.7706 580.272 85.8986 580.768 83.7866 580.768H77.4506V592H69.2906ZM77.3066 573.616H82.6346C83.3386 573.616 83.9786 573.44 84.5546 573.088C85.1306 572.736 85.5946 572.256 85.9466 571.648C86.2986 571.04 86.4746 570.336 86.4746 569.536C86.4746 568.704 86.2986 568 85.9466 567.424C85.5946 566.848 85.1306 566.4 84.5546 566.08C83.9786 565.76 83.3386 565.6 82.6346 565.6H77.3066V573.616ZM103.435 592.432C101.291 592.432 99.3711 591.872 97.6751 590.752C96.0111 589.6 94.6831 588.032 93.6911 586.048C92.6991 584.032 92.2031 581.76 92.2031 579.232C92.2031 576.64 92.6991 574.352 93.6911 572.368C94.6831 570.384 96.0431 568.832 97.7711 567.712C99.4991 566.56 101.467 565.984 103.675 565.984C104.891 565.984 105.995 566.16 106.987 566.512C108.011 566.864 108.907 567.36 109.675 568C110.443 568.608 111.099 569.328 111.643 570.16C112.187 570.96 112.587 571.824 112.843 572.752L111.259 572.56V566.512H118.891V592H111.115V585.856L112.843 585.808C112.587 586.704 112.171 587.552 111.595 588.352C111.019 589.152 110.315 589.856 109.483 590.464C108.651 591.072 107.723 591.552 106.699 591.904C105.675 592.256 104.587 592.432 103.435 592.432ZM105.547 585.952C106.731 585.952 107.755 585.68 108.619 585.136C109.483 584.592 110.155 583.824 110.635 582.832C111.115 581.808 111.355 580.608 111.355 579.232C111.355 577.856 111.115 576.672 110.635 575.68C110.155 574.656 109.483 573.872 108.619 573.328C107.755 572.752 106.731 572.464 105.547 572.464C104.395 572.464 103.387 572.752 102.523 573.328C101.691 573.872 101.035 574.656 100.555 575.68C100.075 576.672 99.8351 577.856 99.8351 579.232C99.8351 580.608 100.075 581.808 100.555 582.832C101.035 583.824 101.691 584.592 102.523 585.136C103.387 585.68 104.395 585.952 105.547 585.952ZM131.572 603.04C129.492 603.04 127.412 602.736 125.332 602.128C123.284 601.52 121.62 600.736 120.34 599.776L123.028 594.4C123.7 594.848 124.436 595.232 125.236 595.552C126.068 595.904 126.932 596.176 127.828 596.368C128.724 596.56 129.636 596.656 130.564 596.656C132.196 596.656 133.524 596.416 134.548 595.936C135.572 595.456 136.34 594.72 136.852 593.728C137.364 592.768 137.62 591.552 137.62 590.08V585.808L139.108 586.048C138.884 587.104 138.324 588.064 137.428 588.928C136.564 589.792 135.492 590.496 134.212 591.04C132.932 591.552 131.572 591.808 130.132 591.808C127.828 591.808 125.764 591.28 123.94 590.224C122.148 589.136 120.724 587.648 119.668 585.76C118.644 583.84 118.132 581.632 118.132 579.136C118.132 576.576 118.644 574.32 119.668 572.368C120.692 570.384 122.1 568.832 123.892 567.712C125.684 566.56 127.7 565.984 129.94 565.984C130.9 565.984 131.812 566.096 132.676 566.32C133.572 566.544 134.388 566.848 135.124 567.232C135.892 567.584 136.564 568.016 137.14 568.528C137.748 569.008 138.228 569.536 138.58 570.112C138.964 570.688 139.22 571.28 139.348 571.888L137.764 572.272L138.052 566.512H145.348V589.936C145.348 592.016 145.028 593.856 144.388 595.456C143.78 597.088 142.868 598.464 141.652 599.584C140.468 600.736 139.028 601.6 137.332 602.176C135.636 602.752 133.716 603.04 131.572 603.04ZM131.764 585.856C133.012 585.856 134.084 585.584 134.98 585.04C135.908 584.464 136.612 583.68 137.092 582.688C137.604 581.696 137.86 580.528 137.86 579.184C137.86 577.84 137.604 576.672 137.092 575.68C136.612 574.656 135.908 573.872 134.98 573.328C134.084 572.752 133.012 572.464 131.764 572.464C130.548 572.464 129.492 572.752 128.596 573.328C127.7 573.872 126.996 574.656 126.484 575.68C126.004 576.672 125.764 577.84 125.764 579.184C125.764 580.528 126.004 581.696 126.484 582.688C126.996 583.68 127.7 584.464 128.596 585.04C129.492 585.584 130.548 585.856 131.764 585.856ZM155.665 592.432C153.521 592.432 151.601 591.872 149.905 590.752C148.241 589.6 146.913 588.032 145.921 586.048C144.929 584.032 144.433 581.76 144.433 579.232C144.433 576.64 144.929 574.352 145.921 572.368C146.913 570.384 148.273 568.832 150.001 567.712C151.729 566.56 153.697 565.984 155.905 565.984C157.121 565.984 158.225 566.16 159.217 566.512C160.241 566.864 161.137 567.36 161.905 568C162.673 568.608 163.329 569.328 163.873 570.16C164.417 570.96 164.817 571.824 165.073 572.752L163.489 572.56V566.512H171.121V592H163.345V585.856L165.073 585.808C164.817 586.704 164.401 587.552 163.825 588.352C163.249 589.152 162.545 589.856 161.713 590.464C160.881 591.072 159.953 591.552 158.929 591.904C157.905 592.256 156.817 592.432 155.665 592.432ZM157.777 585.952C158.961 585.952 159.985 585.68 160.849 585.136C161.713 584.592 162.385 583.824 162.865 582.832C163.345 581.808 163.585 580.608 163.585 579.232C163.585 577.856 163.345 576.672 162.865 575.68C162.385 574.656 161.713 573.872 160.849 573.328C159.985 572.752 158.961 572.464 157.777 572.464C156.625 572.464 155.617 572.752 154.753 573.328C153.921 573.872 153.265 574.656 152.785 575.68C152.305 576.672 152.065 577.856 152.065 579.232C152.065 580.608 152.305 581.808 152.785 582.832C153.265 583.824 153.921 584.592 154.753 585.136C155.617 585.68 156.625 585.952 157.777 585.952ZM172.138 592V566.512H179.434L179.674 571.696L178.138 572.272C178.49 571.12 179.114 570.08 180.01 569.152C180.938 568.192 182.042 567.424 183.322 566.848C184.602 566.272 185.946 565.984 187.354 565.984C189.274 565.984 190.89 566.384 192.202 567.184C193.514 567.952 194.506 569.12 195.178 570.688C195.85 572.224 196.186 574.112 196.186 576.352V592H188.458V576.976C188.458 575.952 188.314 575.104 188.026 574.432C187.738 573.76 187.29 573.264 186.682 572.944C186.106 572.592 185.386 572.432 184.522 572.464C183.85 572.464 183.226 572.576 182.65 572.8C182.074 572.992 181.578 573.296 181.162 573.712C180.746 574.096 180.41 574.544 180.154 575.056C179.93 575.568 179.818 576.128 179.818 576.736V592H176.026C175.13 592 174.362 592 173.722 592C173.082 592 172.554 592 172.138 592ZM206.494 592.528C204.286 592.528 202.318 591.968 200.59 590.848C198.894 589.696 197.55 588.128 196.558 586.144C195.566 584.128 195.07 581.84 195.07 579.28C195.07 576.72 195.566 574.448 196.558 572.464C197.55 570.448 198.91 568.864 200.638 567.712C202.366 566.56 204.35 565.984 206.59 565.984C207.742 565.984 208.846 566.16 209.902 566.512C210.958 566.864 211.918 567.344 212.782 567.952C213.646 568.56 214.35 569.264 214.894 570.064C215.438 570.832 215.758 571.632 215.854 572.464L214.03 572.896V556.48H221.758V592H214.606L214.174 586.192L215.71 586.432C215.614 587.232 215.294 588 214.75 588.736C214.238 589.472 213.566 590.128 212.734 590.704C211.902 591.248 210.942 591.68 209.854 592C208.798 592.352 207.678 592.528 206.494 592.528ZM208.462 586.144C209.646 586.144 210.67 585.856 211.534 585.28C212.398 584.704 213.054 583.904 213.502 582.88C213.982 581.856 214.222 580.656 214.222 579.28C214.222 577.872 213.982 576.656 213.502 575.632C213.054 574.608 212.398 573.808 211.534 573.232C210.67 572.656 209.646 572.368 208.462 572.368C207.278 572.368 206.254 572.656 205.39 573.232C204.558 573.808 203.902 574.608 203.422 575.632C202.942 576.656 202.702 577.872 202.702 579.28C202.702 580.656 202.942 581.856 203.422 582.88C203.902 583.904 204.558 584.704 205.39 585.28C206.254 585.856 207.278 586.144 208.462 586.144ZM234.493 592.48C231.837 592.48 229.469 591.904 227.389 590.752C225.341 589.6 223.709 588.032 222.493 586.048C221.309 584.064 220.717 581.792 220.717 579.232C220.717 576.672 221.309 574.4 222.493 572.416C223.709 570.432 225.341 568.864 227.389 567.712C229.469 566.56 231.837 565.984 234.493 565.984C237.149 565.984 239.501 566.56 241.549 567.712C243.629 568.864 245.261 570.432 246.445 572.416C247.629 574.4 248.221 576.672 248.221 579.232C248.221 581.792 247.629 584.064 246.445 586.048C245.261 588.032 243.629 589.6 241.549 590.752C239.501 591.904 237.149 592.48 234.493 592.48ZM234.493 585.856C235.645 585.856 236.669 585.568 237.565 584.992C238.461 584.416 239.165 583.632 239.677 582.64C240.189 581.648 240.429 580.512 240.397 579.232C240.429 577.952 240.189 576.816 239.677 575.824C239.165 574.8 238.461 574 237.565 573.424C236.669 572.848 235.645 572.56 234.493 572.56C233.341 572.56 232.301 572.848 231.373 573.424C230.477 574 229.773 574.8 229.261 575.824C228.749 576.816 228.509 577.952 228.541 579.232C228.509 580.512 228.749 581.648 229.261 582.64C229.773 583.632 230.477 584.416 231.373 584.992C232.301 585.568 233.341 585.856 234.493 585.856ZM269.242 592.48C266.426 592.48 263.978 591.92 261.898 590.8C259.818 589.648 258.202 588.096 257.05 586.144C255.898 584.16 255.322 581.904 255.322 579.376C255.322 577.424 255.642 575.632 256.282 574C256.922 572.368 257.818 570.96 258.97 569.776C260.122 568.56 261.482 567.632 263.05 566.992C264.65 566.32 266.394 565.984 268.282 565.984C270.074 565.984 271.706 566.304 273.178 566.944C274.682 567.584 275.978 568.48 277.066 569.632C278.154 570.784 278.986 572.144 279.562 573.712C280.138 575.28 280.394 576.992 280.33 578.848L280.282 580.912H259.978L258.874 576.592H274.042L273.226 577.504V576.544C273.162 575.744 272.906 575.04 272.458 574.432C272.042 573.792 271.482 573.296 270.778 572.944C270.074 572.592 269.274 572.416 268.378 572.416C267.13 572.416 266.058 572.672 265.162 573.184C264.298 573.664 263.642 574.384 263.194 575.344C262.746 576.272 262.522 577.424 262.522 578.8C262.522 580.208 262.81 581.44 263.386 582.496C263.994 583.52 264.858 584.32 265.978 584.896C267.13 585.472 268.49 585.76 270.058 585.76C271.146 585.76 272.106 585.6 272.938 585.28C273.802 584.96 274.73 584.416 275.722 583.648L279.322 588.736C278.33 589.6 277.274 590.304 276.154 590.848C275.034 591.392 273.882 591.792 272.698 592.048C271.546 592.336 270.394 592.48 269.242 592.48ZM279.463 592V566.512H286.759L286.999 571.696L285.463 572.272C285.815 571.12 286.439 570.08 287.335 569.152C288.263 568.192 289.367 567.424 290.647 566.848C291.927 566.272 293.271 565.984 294.679 565.984C296.599 565.984 298.215 566.384 299.527 567.184C300.839 567.952 301.831 569.12 302.503 570.688C303.175 572.224 303.511 574.112 303.511 576.352V592H295.783V576.976C295.783 575.952 295.639 575.104 295.351 574.432C295.063 573.76 294.615 573.264 294.007 572.944C293.431 572.592 292.711 572.432 291.847 572.464C291.175 572.464 290.551 572.576 289.975 572.8C289.399 572.992 288.903 573.296 288.487 573.712C288.071 574.096 287.735 574.544 287.479 575.056C287.255 575.568 287.143 576.128 287.143 576.736V592H283.351C282.455 592 281.687 592 281.047 592C280.407 592 279.879 592 279.463 592ZM325.93 592.48C323.114 592.48 320.666 591.92 318.586 590.8C316.506 589.648 314.89 588.096 313.738 586.144C312.586 584.16 312.01 581.904 312.01 579.376C312.01 577.424 312.33 575.632 312.97 574C313.61 572.368 314.506 570.96 315.658 569.776C316.81 568.56 318.17 567.632 319.738 566.992C321.338 566.32 323.082 565.984 324.97 565.984C326.762 565.984 328.394 566.304 329.866 566.944C331.37 567.584 332.666 568.48 333.754 569.632C334.842 570.784 335.674 572.144 336.25 573.712C336.826 575.28 337.082 576.992 337.018 578.848L336.97 580.912H316.666L315.562 576.592H330.73L329.914 577.504V576.544C329.85 575.744 329.594 575.04 329.146 574.432C328.73 573.792 328.17 573.296 327.466 572.944C326.762 572.592 325.962 572.416 325.066 572.416C323.818 572.416 322.746 572.672 321.85 573.184C320.986 573.664 320.33 574.384 319.882 575.344C319.434 576.272 319.21 577.424 319.21 578.8C319.21 580.208 319.498 581.44 320.074 582.496C320.682 583.52 321.546 584.32 322.666 584.896C323.818 585.472 325.178 585.76 326.746 585.76C327.834 585.76 328.794 585.6 329.626 585.28C330.49 584.96 331.418 584.416 332.41 583.648L336.01 588.736C335.018 589.6 333.962 590.304 332.842 590.848C331.722 591.392 330.57 591.792 329.386 592.048C328.234 592.336 327.082 592.48 325.93 592.48ZM337.735 592V565.264C337.735 563.6 338.087 562.096 338.791 560.752C339.527 559.408 340.535 558.352 341.815 557.584C343.127 556.784 344.647 556.384 346.375 556.384C347.591 556.384 348.711 556.56 349.735 556.912C350.759 557.264 351.671 557.76 352.471 558.4L350.263 564.016C349.847 563.792 349.447 563.616 349.063 563.488C348.679 563.36 348.327 563.296 348.007 563.296C347.431 563.296 346.951 563.392 346.567 563.584C346.183 563.776 345.895 564.08 345.703 564.496C345.543 564.88 345.463 565.36 345.463 565.936V592H341.623C340.759 592 339.991 592 339.319 592C338.679 592 338.151 592 337.735 592ZM334.039 573.568V567.232H350.695V573.568H334.039ZM360.442 592.48C357.626 592.48 355.178 591.92 353.098 590.8C351.018 589.648 349.402 588.096 348.25 586.144C347.098 584.16 346.522 581.904 346.522 579.376C346.522 577.424 346.842 575.632 347.482 574C348.122 572.368 349.018 570.96 350.17 569.776C351.322 568.56 352.682 567.632 354.25 566.992C355.85 566.32 357.594 565.984 359.482 565.984C361.274 565.984 362.906 566.304 364.378 566.944C365.882 567.584 367.178 568.48 368.266 569.632C369.354 570.784 370.186 572.144 370.762 573.712C371.338 575.28 371.594 576.992 371.53 578.848L371.482 580.912H351.178L350.074 576.592H365.242L364.426 577.504V576.544C364.362 575.744 364.106 575.04 363.658 574.432C363.242 573.792 362.682 573.296 361.978 572.944C361.274 572.592 360.474 572.416 359.578 572.416C358.33 572.416 357.258 572.672 356.362 573.184C355.498 573.664 354.842 574.384 354.394 575.344C353.946 576.272 353.722 577.424 353.722 578.8C353.722 580.208 354.01 581.44 354.586 582.496C355.194 583.52 356.058 584.32 357.178 584.896C358.33 585.472 359.69 585.76 361.258 585.76C362.346 585.76 363.306 585.6 364.138 585.28C365.002 584.96 365.93 584.416 366.922 583.648L370.522 588.736C369.53 589.6 368.474 590.304 367.354 590.848C366.234 591.392 365.082 591.792 363.898 592.048C362.746 592.336 361.594 592.48 360.442 592.48ZM381.847 592.48C379.383 592.48 377.175 591.904 375.223 590.752C373.271 589.6 371.719 588.032 370.567 586.048C369.447 584.032 368.887 581.76 368.887 579.232C368.887 576.704 369.447 574.448 370.567 572.464C371.719 570.448 373.271 568.864 375.223 567.712C377.175 566.56 379.383 565.984 381.847 565.984C384.119 565.984 386.199 566.384 388.087 567.184C390.007 567.984 391.527 569.104 392.647 570.544L388.471 575.536C388.023 575.024 387.495 574.544 386.887 574.096C386.279 573.648 385.607 573.296 384.871 573.04C384.135 572.784 383.367 572.656 382.567 572.656C381.351 572.656 380.279 572.944 379.351 573.52C378.423 574.064 377.703 574.832 377.191 575.824C376.679 576.816 376.423 577.952 376.423 579.232C376.423 580.448 376.679 581.552 377.191 582.544C377.735 583.536 378.471 584.32 379.399 584.896C380.327 585.472 381.383 585.76 382.567 585.76C383.399 585.76 384.167 585.664 384.871 585.472C385.575 585.248 386.215 584.928 386.791 584.512C387.399 584.096 387.959 583.584 388.471 582.976L392.599 588.016C391.511 589.392 389.991 590.48 388.039 591.28C386.119 592.08 384.055 592.48 381.847 592.48ZM393.171 592V560.08H400.851V592H393.171ZM388.659 573.232V566.512H405.795V573.232H388.659ZM404.856 592V566.512H412.536V592H404.856ZM408.696 561.472C407.256 561.472 406.12 561.136 405.288 560.464C404.488 559.76 404.088 558.768 404.088 557.488C404.088 556.336 404.504 555.392 405.336 554.656C406.168 553.92 407.288 553.552 408.696 553.552C410.136 553.552 411.256 553.904 412.056 554.608C412.856 555.28 413.256 556.24 413.256 557.488C413.256 558.672 412.84 559.632 412.008 560.368C411.208 561.104 410.104 561.472 408.696 561.472ZM421.816 592L411.16 566.512H419.656L425.992 585.568L424.12 585.76L430.648 566.512H439.048L427.864 592H421.816ZM448.591 592.48C445.935 592.48 443.567 591.904 441.487 590.752C439.439 589.6 437.807 588.032 436.591 586.048C435.407 584.064 434.815 581.792 434.815 579.232C434.815 576.672 435.407 574.4 436.591 572.416C437.807 570.432 439.439 568.864 441.487 567.712C443.567 566.56 445.935 565.984 448.591 565.984C451.247 565.984 453.599 566.56 455.647 567.712C457.727 568.864 459.359 570.432 460.543 572.416C461.727 574.4 462.319 576.672 462.319 579.232C462.319 581.792 461.727 584.064 460.543 586.048C459.359 588.032 457.727 589.6 455.647 590.752C453.599 591.904 451.247 592.48 448.591 592.48ZM448.591 585.856C449.743 585.856 450.767 585.568 451.663 584.992C452.559 584.416 453.263 583.632 453.775 582.64C454.287 581.648 454.527 580.512 454.495 579.232C454.527 577.952 454.287 576.816 453.775 575.824C453.263 574.8 452.559 574 451.663 573.424C450.767 572.848 449.743 572.56 448.591 572.56C447.439 572.56 446.399 572.848 445.471 573.424C444.575 574 443.871 574.8 443.359 575.824C442.847 576.816 442.607 577.952 442.639 579.232C442.607 580.512 442.847 581.648 443.359 582.64C443.871 583.632 444.575 584.416 445.471 584.992C446.399 585.568 447.439 585.856 448.591 585.856Z" fill="black"/>
</svg>
