<svg width="481" height="258" viewBox="0 0 481 258" fill="none" xmlns="http://www.w3.org/2000/svg">
<path d="M481 81L129.105 238.511C99.9238 251.504 75.4193 258 55.5912 258C33.1443 258 16.8636 249.734 6.74917 233.202C0.402582 222.583 -1.46799 209.113 1.13745 192.792C3.75626 176.47 10.6774 159.067 21.9008 140.583C31.2537 125.624 46.5991 105.96 67.937 81.5899C60.69 93.5671 55.3805 106.724 52.2242 120.525C46.6125 145.696 51.663 164.18 67.3758 175.979C74.8581 181.485 85.1463 184.238 98.2403 184.238C108.702 184.238 120.487 182.468 133.594 178.928L481 81Z" fill="black"/>
<path d="M71.688 126V30.896H90.248L125.896 87.152L138.312 111.92H133.896L131.016 79.984V30.896H149.32V126H129.48L95.432 71.472L81.16 43.312H86.536L89.864 77.936V126H71.688ZM156.736 126V30.896H176.96V126H156.736ZM184.468 126V30.896H204.116V74.16L237.204 30.896H259.412L222.74 77.296L218.772 80.624L201.236 101.104L204.116 87.792V126H184.468ZM234.388 118.64C232.724 115.568 230.953 112.475 229.076 109.36C227.199 106.203 225.279 103.088 223.316 100.016C221.396 96.944 219.497 93.9787 217.62 91.12C215.743 88.2613 213.972 85.552 212.308 82.992L219.412 76.208L225.556 69.232C226.623 70.6827 228.073 72.8373 229.908 75.696C231.785 78.512 233.876 81.7547 236.18 85.424C238.527 89.0933 240.937 92.912 243.412 96.88C245.887 100.848 248.276 104.752 250.58 108.592C252.884 112.432 254.953 115.931 256.788 119.088C257.257 119.856 257.705 120.624 258.132 121.392C258.601 122.16 259.049 122.928 259.476 123.696C259.945 124.464 260.415 125.232 260.884 126H238.292C237.737 125.147 237.204 124.208 236.692 123.184C236.223 122.117 235.455 120.603 234.388 118.64ZM257.983 126V30.896H316.031V46H277.951V69.872H306.815V84.656H277.951V110.576H320.063V126H257.983Z" fill="black"/>
</svg>
