<svg width="40" height="40" viewBox="0 0 40 40" fill="none" xmlns="http://www.w3.org/2000/svg">
<path d="M24.9993 19.9973V37.506C25.0993 38.1726 24.8493 38.8836 24.2744 39.3502C24.0432 39.5562 23.7685 39.7196 23.4661 39.8311C23.1637 39.9426 22.8395 40 22.5121 40C22.1848 40 21.8606 39.9426 21.5582 39.8311C21.2558 39.7196 20.9811 39.5562 20.7499 39.3502L15.7256 34.8842C15.4531 34.6472 15.2459 34.3574 15.1202 34.0375C14.9945 33.7176 14.9536 33.3762 15.0007 33.04V19.9973H14.9257L0.527696 3.59951C0.121773 3.13631 -0.0613879 2.54912 0.0182364 1.96624C0.0978606 1.38337 0.433796 0.85221 0.952637 0.488823C1.42757 0.177754 1.9525 0 2.50242 0H37.4976C38.0475 0 38.5724 0.177754 39.0474 0.488823C39.5662 0.85221 39.9021 1.38337 39.9818 1.96624C40.0614 2.54912 39.8782 3.13631 39.4723 3.59951L25.0743 19.9973H24.9993Z" fill="black"/>
</svg>
