<svg width="497" height="189" viewBox="0 0 497 189" fill="none" xmlns="http://www.w3.org/2000/svg">
<path d="M130.914 40.8C131.426 44.7039 131.938 48.7359 132.45 52.896C132.962 56.992 133.378 61.12 133.698 65.28C134.018 69.376 134.178 73.312 134.178 77.088V84.576H117.954V77.088C117.954 73.248 118.114 69.248 118.434 65.088C118.754 60.864 119.17 56.704 119.682 52.608C120.258 48.512 120.802 44.576 121.314 40.8H130.914ZM126.114 15.264C128.802 15.264 130.85 16 132.258 17.472C133.73 18.9439 134.466 21.0559 134.466 23.8079C134.466 26.3679 133.698 28.4479 132.162 30.0479C130.626 31.6479 128.61 32.4479 126.114 32.4479C123.49 32.4479 121.442 31.7119 119.97 30.2399C118.562 28.7039 117.858 26.5599 117.858 23.8079C117.858 21.3119 118.626 19.2639 120.162 17.6639C121.698 16.0639 123.682 15.264 126.114 15.264ZM138.075 67.2V-5.34058e-05H152.667L187.899 48L184.731 47.5199C184.411 45.408 184.155 43.392 183.963 41.472C183.771 39.552 183.579 37.6639 183.387 35.8079C183.259 33.952 183.131 32.064 183.003 30.144C182.939 28.224 182.875 26.1439 182.811 23.9039C182.811 21.6639 182.811 19.2319 182.811 16.608V-5.34058e-05H198.651V67.2H183.867L147.099 17.6639L151.995 18.336C152.315 21.4079 152.571 24.0319 152.763 26.2079C153.019 28.3199 153.211 30.2079 153.339 31.8719C153.531 33.5359 153.659 35.04 153.723 36.384C153.787 37.728 153.819 39.0719 153.819 40.4159C153.883 41.696 153.915 43.136 153.915 44.7359V67.2H138.075ZM219.737 68.256C215.961 68.256 212.729 67.456 210.041 65.856C207.417 64.192 205.369 61.824 203.897 58.752C202.489 55.68 201.785 52 201.785 47.712V16.2239H217.241V45.6C217.241 47.648 217.561 49.408 218.201 50.88C218.841 52.352 219.801 53.504 221.081 54.336C222.361 55.104 223.897 55.488 225.689 55.488C227.033 55.488 228.249 55.264 229.337 54.816C230.489 54.368 231.449 53.76 232.217 52.992C233.049 52.16 233.689 51.232 234.137 50.208C234.585 49.12 234.809 47.936 234.809 46.6559V16.2239H250.265V67.2H235.769L235.097 56.736L237.977 55.584C237.209 58.016 235.929 60.192 234.137 62.112C232.345 63.968 230.201 65.472 227.705 66.624C225.209 67.712 222.553 68.256 219.737 68.256ZM276.723 68.16C271.091 68.16 266.195 67.04 262.035 64.8C257.875 62.496 254.643 59.392 252.339 55.488C250.035 51.5199 248.883 47.0079 248.883 41.952C248.883 38.048 249.523 34.464 250.803 31.1999C252.083 27.9359 253.875 25.1199 256.179 22.7519C258.483 20.3199 261.203 18.4639 264.339 17.1839C267.539 15.8399 271.027 15.1679 274.803 15.1679C278.387 15.1679 281.651 15.8079 284.595 17.0879C287.603 18.3679 290.195 20.1599 292.371 22.4639C294.547 24.768 296.211 27.488 297.363 30.624C298.515 33.7599 299.027 37.1839 298.899 40.8959L298.803 45.024H258.195L255.987 36.384H286.323L284.691 38.2079V36.2879C284.563 34.688 284.051 33.28 283.155 32.0639C282.323 30.7839 281.203 29.792 279.795 29.0879C278.387 28.3839 276.787 28.0319 274.995 28.0319C272.499 28.0319 270.355 28.5439 268.563 29.5679C266.835 30.528 265.523 31.968 264.627 33.888C263.731 35.7439 263.283 38.0479 263.283 40.8C263.283 43.616 263.859 46.08 265.011 48.1919C266.227 50.24 267.955 51.84 270.195 52.992C272.499 54.144 275.219 54.72 278.355 54.72C280.531 54.72 282.451 54.4 284.115 53.76C285.843 53.12 287.699 52.032 289.683 50.496L296.883 60.672C294.899 62.4 292.787 63.808 290.547 64.896C288.307 65.984 286.003 66.784 283.635 67.296C281.331 67.872 279.027 68.16 276.723 68.16ZM311.875 67.2L290.563 16.2239H307.555L320.227 54.336L316.483 54.72L329.539 16.2239H346.339L323.971 67.2H311.875ZM365.426 68.16C360.114 68.16 355.378 67.008 351.218 64.704C347.122 62.4 343.858 59.264 341.426 55.296C339.058 51.328 337.874 46.784 337.874 41.664C337.874 36.544 339.058 31.9999 341.426 28.0319C343.858 24.0639 347.122 20.9279 351.218 18.6239C355.378 16.3199 360.114 15.1679 365.426 15.1679C370.738 15.1679 375.442 16.3199 379.538 18.6239C383.698 20.9279 386.962 24.0639 389.33 28.0319C391.698 31.9999 392.882 36.544 392.882 41.664C392.882 46.784 391.698 51.328 389.33 55.296C386.962 59.264 383.698 62.4 379.538 64.704C375.442 67.008 370.738 68.16 365.426 68.16ZM365.426 54.912C367.73 54.912 369.778 54.336 371.57 53.1839C373.362 52.032 374.77 50.464 375.794 48.48C376.818 46.496 377.298 44.224 377.234 41.664C377.298 39.1039 376.818 36.8319 375.794 34.8479C374.77 32.7999 373.362 31.1999 371.57 30.0479C369.778 28.8959 367.73 28.3199 365.426 28.3199C363.122 28.3199 361.042 28.8959 359.186 30.0479C357.394 31.1999 355.986 32.7999 354.962 34.8479C353.938 36.8319 353.458 39.1039 353.522 41.664C353.458 44.224 353.938 46.496 354.962 48.48C355.986 50.464 357.394 52.032 359.186 53.1839C361.042 54.336 363.122 54.912 365.426 54.912ZM-2.14577e-06 187.2V116.16H15.36V187.2H-2.14577e-06ZM35.4187 188.064C31.1307 188.064 27.2907 186.944 23.8987 184.704C20.5707 182.4 17.9147 179.264 15.9307 175.296C13.9467 171.264 12.9547 166.72 12.9547 161.664C12.9547 156.48 13.9467 151.904 15.9307 147.936C17.9147 143.968 20.6347 140.864 24.0907 138.624C27.5467 136.32 31.4827 135.168 35.8987 135.168C38.3307 135.168 40.5387 135.52 42.5227 136.224C44.5707 136.928 46.3627 137.92 47.8987 139.2C49.4347 140.416 50.7467 141.856 51.8347 143.52C52.9227 145.12 53.7227 146.848 54.2347 148.704L51.0667 148.32V136.224H66.3308V187.2H50.7787V174.912L54.2347 174.816C53.7227 176.608 52.8907 178.304 51.7387 179.904C50.5867 181.504 49.1787 182.912 47.5147 184.128C45.8507 185.344 43.9947 186.304 41.9467 187.008C39.8987 187.712 37.7227 188.064 35.4187 188.064ZM39.6427 175.104C42.0107 175.104 44.0587 174.56 45.7867 173.472C47.5147 172.384 48.8587 170.848 49.8187 168.864C50.7787 166.816 51.2587 164.416 51.2587 161.664C51.2587 158.912 50.7787 156.544 49.8187 154.56C48.8587 152.512 47.5147 150.944 45.7867 149.856C44.0587 148.704 42.0107 148.128 39.6427 148.128C37.3387 148.128 35.3227 148.704 33.5947 149.856C31.9307 150.944 30.6187 152.512 29.6587 154.56C28.6987 156.544 28.2187 158.912 28.2187 161.664C28.2187 164.416 28.6987 166.816 29.6587 168.864C30.6187 170.848 31.9307 172.384 33.5947 173.472C35.3227 174.56 37.3387 175.104 39.6427 175.104ZM68.364 187.2V136.224H82.956L83.436 146.592L80.364 147.744C81.068 145.44 82.316 143.36 84.108 141.504C85.964 139.584 88.172 138.048 90.732 136.896C93.292 135.744 95.98 135.168 98.796 135.168C102.636 135.168 105.868 135.968 108.492 137.568C111.116 139.104 113.1 141.44 114.444 144.576C115.788 147.648 116.46 151.424 116.46 155.904V187.2H101.004V157.152C101.004 155.104 100.716 153.408 100.14 152.064C99.564 150.72 98.668 149.728 97.452 149.088C96.3 148.384 94.86 148.064 93.132 148.128C91.788 148.128 90.54 148.352 89.388 148.8C88.236 149.184 87.244 149.792 86.412 150.624C85.58 151.392 84.908 152.288 84.396 153.312C83.948 154.336 83.724 155.456 83.724 156.672V187.2H76.14C74.348 187.2 72.812 187.2 71.532 187.2C70.252 187.2 69.196 187.2 68.364 187.2ZM115.765 187.2V178.368L142.838 143.616V148.704H115.765V136.224H158.006V145.44L132.374 179.136L131.99 174.72H158.87V187.2H115.765ZM176.921 188.064C172.633 188.064 168.793 186.944 165.401 184.704C162.073 182.4 159.417 179.264 157.433 175.296C155.449 171.264 154.457 166.72 154.457 161.664C154.457 156.48 155.449 151.904 157.433 147.936C159.417 143.968 162.137 140.864 165.593 138.624C169.049 136.32 172.985 135.168 177.401 135.168C179.833 135.168 182.041 135.52 184.025 136.224C186.073 136.928 187.865 137.92 189.401 139.2C190.937 140.416 192.249 141.856 193.337 143.52C194.425 145.12 195.225 146.848 195.737 148.704L192.569 148.32V136.224H207.833V187.2H192.281V174.912L195.737 174.816C195.225 176.608 194.393 178.304 193.241 179.904C192.089 181.504 190.681 182.912 189.017 184.128C187.353 185.344 185.497 186.304 183.449 187.008C181.401 187.712 179.225 188.064 176.921 188.064ZM181.145 175.104C183.513 175.104 185.561 174.56 187.289 173.472C189.017 172.384 190.361 170.848 191.321 168.864C192.281 166.816 192.761 164.416 192.761 161.664C192.761 158.912 192.281 156.544 191.321 154.56C190.361 152.512 189.017 150.944 187.289 149.856C185.561 148.704 183.513 148.128 181.145 148.128C178.841 148.128 176.825 148.704 175.097 149.856C173.433 150.944 172.121 152.512 171.161 154.56C170.201 156.544 169.721 158.912 169.721 161.664C169.721 164.416 170.201 166.816 171.161 168.864C172.121 170.848 173.433 172.384 175.097 173.472C176.825 174.56 178.841 175.104 181.145 175.104ZM209.77 187.2V136.224H224.362L224.842 145.44L222.826 145.536C223.594 143.872 224.554 142.4 225.706 141.12C226.922 139.84 228.266 138.784 229.738 137.952C231.274 137.056 232.842 136.384 234.442 135.936C236.106 135.488 237.77 135.264 239.434 135.264C241.93 135.264 244.202 135.648 246.25 136.416C248.298 137.184 250.09 138.432 251.626 140.16C253.162 141.824 254.378 144.096 255.274 146.976L252.874 146.784L253.642 145.248C254.474 143.712 255.53 142.336 256.81 141.12C258.154 139.84 259.626 138.784 261.226 137.952C262.826 137.056 264.49 136.384 266.218 135.936C267.946 135.488 269.61 135.264 271.21 135.264C275.242 135.264 278.602 136.064 281.29 137.664C283.978 139.2 285.994 141.536 287.338 144.672C288.746 147.808 289.45 151.616 289.45 156.096V187.2H273.994V157.344C273.994 155.296 273.706 153.6 273.13 152.256C272.554 150.912 271.69 149.92 270.538 149.28C269.45 148.576 268.074 148.224 266.41 148.224C265.066 148.224 263.818 148.448 262.666 148.896C261.578 149.344 260.618 149.952 259.786 150.72C259.018 151.488 258.41 152.384 257.962 153.408C257.514 154.432 257.29 155.584 257.29 156.864V187.2H241.834V157.248C241.834 155.328 241.546 153.696 240.97 152.352C240.394 151.008 239.53 149.984 238.378 149.28C237.226 148.576 235.882 148.224 234.346 148.224C233.002 148.224 231.754 148.448 230.602 148.896C229.514 149.344 228.554 149.952 227.722 150.72C226.954 151.488 226.346 152.384 225.898 153.408C225.45 154.432 225.226 155.552 225.226 156.768V187.2H209.77ZM291.554 187.2V136.224H306.914V187.2H291.554ZM299.234 126.144C296.354 126.144 294.082 125.472 292.418 124.128C290.818 122.72 290.018 120.736 290.018 118.176C290.018 115.872 290.85 113.984 292.514 112.512C294.178 111.04 296.418 110.304 299.234 110.304C302.114 110.304 304.354 111.008 305.954 112.416C307.554 113.76 308.354 115.68 308.354 118.176C308.354 120.544 307.522 122.464 305.858 123.936C304.258 125.408 302.05 126.144 299.234 126.144ZM334.114 188.16C328.482 188.16 323.586 187.04 319.426 184.8C315.266 182.496 312.034 179.392 309.73 175.488C307.426 171.52 306.274 167.008 306.274 161.952C306.274 158.048 306.914 154.464 308.194 151.2C309.474 147.936 311.266 145.12 313.57 142.752C315.874 140.32 318.594 138.464 321.73 137.184C324.93 135.84 328.418 135.168 332.194 135.168C335.778 135.168 339.042 135.808 341.986 137.088C344.994 138.368 347.586 140.16 349.762 142.464C351.938 144.768 353.602 147.488 354.754 150.624C355.906 153.76 356.418 157.184 356.29 160.896L356.194 165.024H315.586L313.378 156.384H343.714L342.082 158.208V156.288C341.954 154.688 341.442 153.28 340.546 152.064C339.714 150.784 338.594 149.792 337.186 149.088C335.778 148.384 334.178 148.032 332.386 148.032C329.89 148.032 327.746 148.544 325.954 149.568C324.226 150.528 322.914 151.968 322.018 153.888C321.122 155.744 320.674 158.048 320.674 160.8C320.674 163.616 321.25 166.08 322.402 168.192C323.618 170.24 325.346 171.84 327.586 172.992C329.89 174.144 332.61 174.72 335.746 174.72C337.922 174.72 339.842 174.4 341.506 173.76C343.234 173.12 345.09 172.032 347.074 170.496L354.274 180.672C352.29 182.4 350.178 183.808 347.938 184.896C345.698 185.984 343.394 186.784 341.026 187.296C338.722 187.872 336.418 188.16 334.114 188.16ZM354.557 187.2V136.224H369.149L369.629 146.592L366.557 147.744C367.261 145.44 368.509 143.36 370.301 141.504C372.157 139.584 374.365 138.048 376.925 136.896C379.485 135.744 382.173 135.168 384.989 135.168C388.829 135.168 392.061 135.968 394.685 137.568C397.309 139.104 399.293 141.44 400.637 144.576C401.981 147.648 402.653 151.424 402.653 155.904V187.2H387.197V157.152C387.197 155.104 386.909 153.408 386.333 152.064C385.757 150.72 384.861 149.728 383.645 149.088C382.493 148.384 381.053 148.064 379.325 148.128C377.981 148.128 376.733 148.352 375.581 148.8C374.429 149.184 373.437 149.792 372.605 150.624C371.773 151.392 371.101 152.288 370.589 153.312C370.141 154.336 369.917 155.456 369.917 156.672V187.2H362.333C360.541 187.2 359.005 187.2 357.725 187.2C356.445 187.2 355.389 187.2 354.557 187.2ZM408.198 187.2V123.36H423.558V187.2H408.198ZM399.174 149.664V136.224H433.446V149.664H399.174ZM454.235 188.16C448.923 188.16 444.187 187.008 440.027 184.704C435.931 182.4 432.667 179.264 430.235 175.296C427.867 171.328 426.683 166.784 426.683 161.664C426.683 156.544 427.867 152 430.235 148.032C432.667 144.064 435.931 140.928 440.027 138.624C444.187 136.32 448.923 135.168 454.235 135.168C459.547 135.168 464.251 136.32 468.347 138.624C472.507 140.928 475.771 144.064 478.139 148.032C480.507 152 481.691 156.544 481.691 161.664C481.691 166.784 480.507 171.328 478.139 175.296C475.771 179.264 472.507 182.4 468.347 184.704C464.251 187.008 459.547 188.16 454.235 188.16ZM454.235 174.912C456.539 174.912 458.587 174.336 460.379 173.184C462.171 172.032 463.579 170.464 464.603 168.48C465.627 166.496 466.107 164.224 466.043 161.664C466.107 159.104 465.627 156.832 464.603 154.848C463.579 152.8 462.171 151.2 460.379 150.048C458.587 148.896 456.539 148.32 454.235 148.32C451.931 148.32 449.851 148.896 447.995 150.048C446.203 151.2 444.795 152.8 443.771 154.848C442.747 156.832 442.267 159.104 442.331 161.664C442.267 164.224 442.747 166.496 443.771 168.48C444.795 170.464 446.203 172.032 447.995 173.184C449.851 174.336 451.931 174.912 454.235 174.912ZM483.383 162.72C482.871 158.816 482.359 154.784 481.847 150.624C481.335 146.464 480.919 142.336 480.599 138.24C480.279 134.144 480.119 130.208 480.119 126.432V118.944H496.343V126.432C496.343 130.272 496.183 134.272 495.863 138.432C495.543 142.592 495.127 146.752 494.615 150.912C494.103 155.008 493.559 158.944 492.983 162.72H483.383ZM488.183 188.256C485.559 188.256 483.511 187.52 482.039 186.048C480.567 184.576 479.831 182.464 479.831 179.712C479.831 177.152 480.599 175.072 482.135 173.472C483.671 171.872 485.687 171.072 488.183 171.072C490.807 171.072 492.823 171.84 494.231 173.376C495.703 174.848 496.439 176.96 496.439 179.712C496.439 182.208 495.671 184.256 494.135 185.856C492.599 187.456 490.615 188.256 488.183 188.256Z" fill="white"/>
</svg>
