<svg width="85" height="112" viewBox="0 0 85 112" fill="none" xmlns="http://www.w3.org/2000/svg">
<path d="M10.258 65.4717L15.3849 62.9083" stroke="black" stroke-width="4.10149" stroke-linecap="round"/>
<path d="M13.3341 21.3815C24.1006 1.38601 66.1408 -4.25324 73.8311 42.4009" stroke="black" stroke-width="4.10149" stroke-linecap="round"/>
<path d="M64.6028 92.1316C72.558 83.2997 74.5708 62.4983 72.2931 54.7055" stroke="black" stroke-width="4.61418" stroke-linecap="round"/>
<path d="M9.2326 57.8376L11.2834 54.7056L12.5145 51.1168L12.8214 44.4519L15.3848 31.6893C22.5625 15.2833 50.2475 -0.0972811 62.552 31.6892L64.0901 36.3046L67 43.5002L69.5 47.5002L74.8565 50.1474" stroke="black" stroke-width="4.10149" stroke-linecap="round"/>
<path d="M39.4812 105.461C46.1461 105.974 50.7603 104.949 61.014 97.2585" stroke="black" stroke-width="4.10149" stroke-linecap="round"/>
<path d="M15.3848 89.0557C24.1005 101.873 37.943 103.924 50.7602 92.1318" stroke="black" stroke-width="4.10149" stroke-linecap="round"/>
<path d="M56.3998 92.1317L58.9632 89.5683L61.5266 81.3653L65.6281 72.6497" stroke="black" stroke-width="4.10149" stroke-linecap="round"/>
<path d="M21.5371 88.5431C29.2274 93.1572 42.5573 99.3095 48.7095 75.7259" stroke="black" stroke-width="4.10149" stroke-linecap="round"/>
<path d="M17.4356 57.2683L19.9991 53.1673C17.4356 23.4318 48.1968 5.99976 56.9125 36.7608" stroke="black" stroke-width="4.10149" stroke-linecap="round"/>
<path d="M50.7603 87.5174L52.811 85.9794C53.8364 81.3652 57.9379 71.6241 63.0648 68.0353" stroke="black" stroke-width="4.10149" stroke-linecap="round"/>
<path d="M24.6133 51.4739L26.1513 49.4222L26.664 48.0409V47.0155C26.664 28.0458 49.7349 20.8683 49.7349 42.2455" stroke="black" stroke-width="4.10149" stroke-linecap="round"/>
<path d="M28.7148 85.4666C31.62 85.6375 36.405 85.9793 41.5319 79.827" stroke="black" stroke-width="3.58881" stroke-linecap="round"/>
<path d="M21.0245 64.4469C20.8411 64.8137 10.2581 71.1118 9.7454 73.1625C7.18197 78.2892 12.8215 81.3651 14.3597 82.3909C15.4387 83.1105 21.5371 83.4158 24.6133 82.9032C27.1767 82.3909 41.0192 75.7255 45.1209 72.1371C49.2767 68.5013 50.7603 70.5987 52.811 69.0606C53.7281 68.3728 61.5267 64.9591 63.0647 63.9338C63.9179 63.365 65.6283 64.4468 66.141 65.4722C66.6536 66.4973 66.6536 60.8607 66.6536 58.8086V58.8069C66.6536 56.693 66.6536 57.2688 64.6028 50.0912C62.5521 42.9136 58.9633 41.376 57.4253 41.376C56.7003 41.376 53.4598 45.6659 52.811 45.9901C50.7603 47.0151 49.3975 46.2194 48.7097 45.9901C45.6334 44.965 42.5573 34.198 39.4813 35.2235C37.4759 35.8921 34.5253 43.4265 32.8164 48.0407L22.5626 60.858C21.7081 62.2252 21.5372 63.4215 21.0245 64.4469Z" fill="black" stroke="black" stroke-width="1.02537"/>
<path d="M21.8783 72.6777C21.9829 72.9749 22.0878 73.2683 22.1928 73.558C22.2978 73.8476 22.3996 74.1425 22.4982 74.4425L20.6173 75.4409L20.8641 76.0215L22.534 75.2429L23.0505 76.7136L21.4819 77.5001L22.6506 80.2236L20.3741 81.3402L17.6946 74.6284L21.8783 72.6777ZM29.8892 76.429L27.7638 77.7733L27.0488 76.8589L26.0142 77.3413L26.2301 78.4884L23.8179 79.337L23.0146 72.3577L25.4827 71.0524L29.8892 76.429ZM26.2861 75.5252L25.2595 74.0826L25.6054 75.8425L26.2861 75.5252ZM32.457 67.9663L33.523 75.1544L31.3272 76.3328L26.5309 70.8066L28.5956 69.601L31.0732 72.973L30.3109 68.8013L32.457 67.9663ZM36.8256 65.7086C36.9302 66.0058 37.035 66.2992 37.14 66.5889C37.2451 66.8785 37.3468 67.1734 37.4454 67.4734L35.5645 68.4718L35.766 69.0735L37.1182 68.443L37.6256 69.9179L36.2839 70.5987L36.5245 71.2926L37.6499 70.7679L38.4485 70.3955C38.574 70.7419 38.6974 71.0874 38.8185 71.4321C38.9414 71.7723 39.0665 72.1133 39.1937 72.4552L35.3214 74.3711L32.6418 67.6593L36.8256 65.7086ZM43.4029 67.7764C43.5818 68.1972 43.664 68.595 43.6494 68.9699C43.6365 69.3403 43.5469 69.6839 43.3807 70.0006C43.2163 70.3129 42.9864 70.5949 42.6911 70.8467C42.3975 71.094 42.0586 71.3072 41.6744 71.4863C41.5262 71.5554 41.3543 71.6116 41.1589 71.6549C40.9664 71.6968 40.767 71.7308 40.5607 71.7571C40.3531 71.7803 40.1502 71.7976 39.9521 71.809C39.7556 71.8159 39.5793 71.819 39.4231 71.8182L38.8549 69.919C39.1786 69.9557 39.5139 69.9429 39.8608 69.8806C40.2093 69.8138 40.5349 69.7098 40.8374 69.5688C40.8949 69.542 40.9638 69.508 41.0442 69.4669C41.1232 69.4226 41.1945 69.3729 41.258 69.3175C41.3232 69.2577 41.3717 69.1927 41.4035 69.1227C41.4353 69.0526 41.433 68.9746 41.3964 68.8886C41.3716 68.8302 41.3325 68.7895 41.2793 68.7665C41.2247 68.7404 41.1634 68.7285 41.0955 68.7307C41.0263 68.7299 40.9527 68.7403 40.8749 68.7618C40.7958 68.7803 40.7201 68.8027 40.6479 68.829C40.5757 68.8553 40.5094 68.8826 40.4489 68.9108C40.3884 68.939 40.34 68.9615 40.3037 68.9785C40.0435 69.0998 39.7884 69.169 39.5384 69.1862C39.2913 69.202 39.0587 69.1706 38.8404 69.0921C38.6239 69.009 38.4275 68.8797 38.2514 68.7042C38.074 68.5256 37.9291 68.3042 37.8168 68.04C37.6627 67.6776 37.596 67.3203 37.6167 66.9684C37.6392 66.6119 37.7275 66.2782 37.8816 65.9671C38.0374 65.6515 38.2482 65.3673 38.5141 65.1146C38.78 64.8618 39.0793 64.6578 39.4121 64.5026C39.5603 64.4335 39.7157 64.3684 39.8782 64.3074C40.0395 64.2433 40.2031 64.1891 40.3691 64.1448C40.5382 64.0991 40.706 64.0632 40.8725 64.0371C41.039 64.0109 41.2025 63.9991 41.3631 64.0016L41.986 65.9526C41.7502 65.9779 41.5091 66.0204 41.2626 66.0801C41.0179 66.1353 40.7881 66.213 40.5733 66.3131C40.534 66.3315 40.4832 66.357 40.421 66.3897C40.3605 66.4179 40.2974 66.4528 40.2317 66.4945C40.1678 66.5316 40.1043 66.5741 40.0413 66.6219C39.9782 66.6697 39.9253 66.7202 39.8826 66.7732C39.8386 66.8231 39.8091 66.8774 39.7941 66.9359C39.7791 66.9944 39.7856 67.0522 39.8134 67.1091C39.8452 67.1753 39.8916 67.2162 39.9526 67.2319C40.0167 67.2462 40.0889 67.2456 40.1694 67.2302C40.2515 67.2103 40.3365 67.1799 40.4242 67.139C40.515 67.0967 40.6036 67.0536 40.69 67.0096C40.7751 66.9625 40.8548 66.9198 40.9291 66.8815C41.0022 66.8401 41.0635 66.8097 41.1132 66.7902C41.3618 66.6927 41.6018 66.6433 41.8333 66.6422C42.0647 66.641 42.2784 66.6831 42.4742 66.7684C42.673 66.8524 42.8509 66.9811 43.008 67.1544C43.1668 67.3233 43.2984 67.5306 43.4029 67.7764ZM46.6353 61.3115L47.4205 63.2863L46.0918 63.972L47.7463 68.324L45.8745 69.3182L43.8842 65.1228L42.5633 65.827L41.6931 63.6268L46.6353 61.3115ZM52.5986 58.8403L51.9704 63.3733L53.1427 65.9515L50.8103 67.039L49.7638 64.4242L46.6495 61.7797L48.8383 60.4058L50.4106 62.0578L50.3539 59.6992L52.5986 58.8403ZM58.2242 60.7666L58.9033 62.9013L55.2119 64.9868L52.5597 58.3395L54.9193 57.2393L56.3818 61.6256L58.2242 60.7666ZM62.9569 57.0252C63.0706 57.2924 63.166 57.5681 63.2433 57.8523C62.7404 58.1273 62.2496 58.4223 61.771 58.7375C61.2911 59.0496 60.8112 59.3617 60.3313 59.6738C60.504 59.8582 60.7016 59.9777 60.9242 60.0323C61.1497 60.0854 61.379 60.0576 61.6119 59.949C61.7329 59.8926 61.8547 59.8082 61.9773 59.6958C62.1029 59.582 62.2225 59.4582 62.3359 59.3243C62.448 59.1874 62.5522 59.0487 62.6483 58.9082C62.7444 58.7676 62.8257 58.6433 62.892 58.535L63.5636 60.7284C63.4848 60.8756 63.3895 61.0139 63.2778 61.1432C63.1691 61.2712 63.0491 61.3897 62.9178 61.4988C62.7866 61.6078 62.6492 61.7068 62.5058 61.7958C62.3624 61.8847 62.2181 61.9631 62.0729 62.0308C61.7734 62.1704 61.482 62.2566 61.1987 62.2893C60.9153 62.322 60.641 62.3119 60.3756 62.259C60.112 62.2016 59.8614 62.1067 59.624 61.9745C59.3865 61.8423 59.1669 61.6797 58.9652 61.4866C58.7636 61.2936 58.5802 61.0754 58.4151 60.8322C58.2501 60.5889 58.1095 60.3306 57.9932 60.0572C57.8718 59.7715 57.776 59.4739 57.706 59.1642C57.636 58.8546 57.5962 58.5437 57.5868 58.2316C57.5803 57.918 57.6081 57.6125 57.6701 57.3149C57.7338 57.0129 57.8356 56.728 57.9755 56.4603C58.1155 56.1926 58.2983 55.9491 58.524 55.7298C58.7528 55.509 59.029 55.3232 59.3527 55.1723C59.6219 55.0467 59.8833 54.9709 60.1368 54.9447C60.392 54.9141 60.6345 54.9261 60.8644 54.9809C61.096 55.0311 61.3145 55.1188 61.52 55.2439C61.7284 55.3675 61.9205 55.5209 62.0962 55.704C62.2736 55.8826 62.4342 56.0856 62.578 56.313C62.7235 56.5359 62.8499 56.7733 62.9569 57.0252ZM61.04 57.6319C61.0034 57.5459 60.9571 57.4625 60.9011 57.3819C60.8438 57.2982 60.7783 57.2294 60.7046 57.1754C60.6339 57.12 60.5555 57.0848 60.4693 57.0698C60.3819 57.0517 60.2883 57.0659 60.1884 57.1124C60.0674 57.1688 59.9744 57.2527 59.9093 57.364C59.846 57.4708 59.8026 57.5904 59.7792 57.7228C59.7544 57.8522 59.7457 57.9851 59.7529 58.1215C59.7602 58.258 59.7742 58.3803 59.7948 58.4885L61.0831 57.7332L61.04 57.6319Z" fill="white"/>
</svg>
