<svg width="50" height="51" viewBox="0 0 50 51" fill="none" xmlns="http://www.w3.org/2000/svg">
<path d="M25 0.442795C28.3152 0.442795 31.4946 1.75975 33.8388 4.10396C36.183 6.44816 37.5 9.62759 37.5 12.9428C37.5 16.258 36.183 19.4374 33.8388 21.7816C31.4946 24.1258 28.3152 25.4428 25 25.4428C21.6848 25.4428 18.5054 24.1258 16.1612 21.7816C13.817 19.4374 12.5 16.258 12.5 12.9428C12.5 9.62759 13.817 6.44816 16.1612 4.10396C18.5054 1.75975 21.6848 0.442795 25 0.442795ZM25 31.6928C38.8125 31.6928 50 37.2865 50 44.1928V50.4428H0V44.1928C0 37.2865 11.1875 31.6928 25 31.6928Z" fill="black"/>
</svg>
