<svg width="50" height="51" viewBox="0 0 50 51" fill="none" xmlns="http://www.w3.org/2000/svg">
<path d="M46.1111 50.4428L28.6111 32.9428C27.2222 34.0539 25.625 34.9335 23.8194 35.5817C22.0139 36.2298 20.0926 36.5539 18.0556 36.5539C13.0093 36.5539 8.73889 34.8058 5.24445 31.3095C1.75 27.8132 0.00185332 23.5428 1.46972e-06 18.4984C-0.00185038 13.4539 1.7463 9.18354 5.24445 5.68724C8.74259 2.19094 13.013 0.442795 18.0556 0.442795C23.0981 0.442795 27.3694 2.19094 30.8694 5.68724C34.3694 9.18354 36.1167 13.4539 36.1111 18.4984C36.1111 20.5354 35.787 22.4567 35.1389 24.2622C34.4907 26.0678 33.6111 27.665 32.5 29.0539L50 46.5539L46.1111 50.4428ZM18.0556 30.9983C21.5278 30.9983 24.4796 29.7835 26.9111 27.3539C29.3426 24.9243 30.5574 21.9724 30.5556 18.4984C30.5537 15.0243 29.3389 12.0734 26.9111 9.64557C24.4833 7.21779 21.5315 6.00205 18.0556 5.99835C14.5796 5.99465 11.6287 7.21039 9.20278 9.64557C6.77685 12.0808 5.56111 15.0317 5.55556 18.4984C5.55 21.965 6.76574 24.9169 9.20278 27.3539C11.6398 29.7909 14.5907 31.0058 18.0556 30.9983Z" fill="black"/>
</svg>
